<?xml version="1.0" encoding="UTF-8"?>
<svg width="160px" height="160px" viewBox="0 0 160 160" version="1.1" xmlns="http://www.w3.org/2000/svg" xmlns:xlink="http://www.w3.org/1999/xlink">
    <!-- Generator: Sketch 61 (89581) - https://sketch.com -->
    <title>testimonial-logo-fanatics</title>
    <desc>Created with Sketch.</desc>
    <g id="testimonial-logo-fanatics" stroke="none" stroke-width="1" fill="none" fill-rule="evenodd">
        <rect id="Background" fill="#09203F" x="0" y="0" width="160" height="160" rx="80"></rect>
        <g id="Fanatics_(sports_retailer)_logo" transform="translate(33.000000, 44.000000)" fill="#E53D2E" fill-rule="nonzero">
            <path d="M92.5482242,9.08792526 L83.2915374,23.4872158 C83.1201173,23.744346 82.691567,23.9157661 82.4344368,23.744346 C61.0926312,13.0305881 36.4081331,32.7439026 14.6377772,28.0298491 C14.4663571,27.944139 14.294937,27.858429 14.1235168,27.6870089 C14.2092269,27.6870089 3.6668892,11.5735171 0.152776631,6.17378313 C-0.275773682,5.48810263 0.238486694,4.54529194 1.18129738,4.63100201 C3.06691876,5.05955232 11.2950848,6.85946364 17.6376294,7.37372401 C50.6360035,9.17363533 68.5494066,-10.6253891 92.4625141,8.14511458 C92.7196443,8.3165347 92.8053544,8.74508501 92.5482242,9.08792526 Z M65.6352645,50.3144654 C65.8066846,50.4001755 65.9781048,50.3144654 66.1495249,50.1430453 L77.291833,32.7439026 C77.4632531,32.4867724 77.291833,32.2296422 77.0347028,32.1439321 C60.835501,26.572778 45.6648199,37.2865359 22.523103,37.8865063 C21.9231325,37.8865063 21.3231621,38.5721868 21.7517124,39.3435774 L46.6933407,77.9131056 C47.0361809,78.5987861 47.8932815,78.1702358 47.8075715,77.5702653 L42.4078375,53.1428975 C42.3221275,52.8857673 42.4935476,52.7143472 42.6649677,52.6286371 C44.8077193,52.0286667 58.9498796,47.2289031 65.6352645,50.3144654 L65.6352645,50.3144654 Z" id="path318"></path>
        </g>
    </g>
</svg>